<?xml version="1.0" standalone="no"?>
<!DOCTYPE svg PUBLIC "-//W3C//DTD SVG 20010904//EN"
 "http://www.w3.org/TR/2001/REC-SVG-20010904/DTD/svg10.dtd">
<svg version="1.0" xmlns="http://www.w3.org/2000/svg"
 width="37" height="37" viewBox="0 0 512.000000 512.000000"
 preserveAspectRatio="xMidYMid meet">

<g transform="translate(0.000000,512.000000) scale(0.100000,-0.100000)"
fill="#000000" stroke="none">
<path d="M2505 4775 c-25 -24 -25 -26 -25 -215 0 -189 0 -191 25 -215 15 -16
36 -25 55 -25 19 0 40 9 55 25 25 24 25 26 25 215 0 189 0 191 -25 215 -15 16
-36 25 -55 25 -19 0 -40 -9 -55 -25z"/>
<path d="M1149 4211 c-52 -52 -41 -74 114 -228 116 -116 138 -133 166 -133 43
0 81 38 81 81 0 28 -17 50 -132 166 -155 155 -177 166 -229 114z"/>
<path d="M3885 4230 c-11 -4 -77 -66 -147 -137 -110 -112 -128 -134 -128 -162
0 -43 38 -81 81 -81 28 0 50 17 166 133 154 153 166 176 115 227 -31 31 -51
35 -87 20z"/>
<path d="M2415 4154 c-114 -18 -209 -39 -288 -66 -707 -236 -1092 -1005 -857
-1709 97 -293 261 -513 512 -691 42 -29 89 -61 106 -70 l31 -17 3 -430 c3
-416 4 -430 24 -457 44 -60 67 -69 184 -72 l108 -4 4 -108 c3 -117 12 -140 72
-184 26 -20 41 -21 246 -21 205 0 220 1 246 21 60 44 69 67 72 184 l4 108 108
4 c117 3 140 12 184 72 20 26 21 43 26 458 l5 431 62 38 c267 162 480 428 577
719 58 174 71 254 70 440 0 187 -15 281 -71 444 -113 326 -346 598 -648 757
-201 106 -365 149 -595 154 -85 2 -168 1 -185 -1z m332 -169 c495 -80 875
-444 990 -947 12 -53 16 -119 16 -243 0 -158 -2 -179 -31 -288 -85 -326 -297
-598 -588 -758 -41 -23 -79 -49 -84 -59 -6 -10 -10 -71 -10 -134 l0 -116 -200
0 -200 0 0 183 0 182 114 114 c63 63 117 126 121 139 13 52 -30 102 -87 102
-13 0 -60 -38 -124 -102 l-104 -102 -104 102 c-64 64 -111 102 -124 102 -52 0
-92 -40 -92 -92 0 -14 43 -65 120 -143 l120 -121 0 -182 0 -182 -200 0 -200 0
0 116 c0 63 -4 124 -10 134 -5 10 -43 36 -83 58 -568 312 -788 1010 -500 1587
181 363 527 605 938 658 74 10 238 6 322 -8z m293 -2785 l0 -80 -480 0 -480 0
0 80 0 80 480 0 480 0 0 -80z m0 -320 l0 -80 -480 0 -480 0 0 80 0 80 480 0
480 0 0 -80z m-320 -320 l0 -80 -160 0 -160 0 0 80 0 80 160 0 160 0 0 -80z"/>
<path d="M585 2855 c-16 -15 -25 -36 -25 -55 0 -19 9 -40 25 -55 24 -25 26
-25 215 -25 189 0 191 0 215 25 16 15 25 36 25 55 0 19 -9 40 -25 55 -24 25
-26 25 -215 25 -189 0 -191 0 -215 -25z"/>
<path d="M4105 2855 c-16 -15 -25 -36 -25 -55 0 -19 9 -40 25 -55 24 -25 26
-25 215 -25 189 0 191 0 215 25 16 15 25 36 25 55 0 19 -9 40 -25 55 -24 25
-26 25 -215 25 -189 0 -191 0 -215 -25z"/>
<path d="M1395 1740 c-11 -4 -75 -64 -142 -132 -144 -144 -155 -168 -104 -219
51 -50 75 -39 214 99 158 156 170 180 118 233 -30 30 -51 34 -86 19z"/>
<path d="M3639 1721 c-51 -51 -40 -75 103 -218 67 -67 134 -127 149 -133 58
-24 123 41 99 99 -6 15 -66 82 -133 149 -143 143 -167 154 -218 103z"/>
</g>
</svg>
