<svg width="33" height="33" viewBox="0 0 33 33" fill="none" xmlns="http://www.w3.org/2000/svg">
<g clip-path="url(#clip0_5_1449)">
<path d="M25.1204 16.4247C25.106 18.1088 24.5768 19.7482 23.6038 21.1229C22.6308 22.4975 21.2606 23.5416 19.6771 24.1151C18.0653 24.6833 16.3189 24.7481 14.6694 24.3009C13.0199 23.8538 11.5454 22.9157 10.4413 21.6113C9.37117 20.3064 8.73103 18.7023 8.6087 17.0192C8.48636 15.3361 8.88782 13.6563 9.75799 12.2104C10.6961 10.6773 12.107 9.4906 13.7782 8.82902C15.4493 8.16744 17.2902 8.06681 19.0235 8.54231C20.7568 9.0178 22.2887 10.0437 23.3883 11.4653C24.488 12.887 25.0959 14.6276 25.1204 16.4247C25.1204 17.5758 26.9181 17.5804 26.9089 16.4247C26.8802 14.3714 26.2257 12.3758 25.0327 10.7044C23.8396 9.03297 22.165 7.76542 20.2325 7.07106C18.2999 6.3767 16.2015 6.2886 14.2176 6.81853C12.2336 7.34846 10.4586 8.47119 9.12974 10.0367C7.8055 11.6241 7.00617 13.5831 6.84191 15.6438C6.67764 17.7045 7.15653 19.7654 8.21258 21.5425C9.29938 23.3021 10.8953 24.6899 12.7887 25.522C14.6821 26.3541 16.7837 26.5911 18.8149 26.2017C21.0795 25.745 23.1188 24.525 24.592 22.7455C26.0652 20.966 26.8831 18.7348 26.9089 16.4247C26.9181 15.2737 25.1296 15.2737 25.1204 16.4247Z" fill="#1A1A1A"/>
<path d="M20.7641 16.4245C20.7569 17.2181 20.5089 17.9908 20.0527 18.6402C19.5966 19.2896 18.9539 19.7851 18.2098 20.0611C17.4346 20.3384 16.5928 20.3706 15.7987 20.1532C15.0046 19.9358 14.2966 19.4794 13.7708 18.8459C13.2784 18.2279 12.9865 17.4743 12.9341 16.686C12.8816 15.8976 13.0712 15.112 13.4773 14.4343C13.9206 13.7058 14.589 13.1413 15.3814 12.826C16.1737 12.5106 17.0472 12.4616 17.8699 12.6863C18.6926 12.911 19.4199 13.3972 19.942 14.0716C20.464 14.7459 20.7526 15.5718 20.7641 16.4245C20.7641 17.5756 22.5663 17.5802 22.5526 16.4245C22.5421 15.2568 22.1743 14.1202 21.4987 13.1676C20.8231 12.215 19.8721 11.4921 18.7734 11.0961C17.6748 10.7001 16.4812 10.65 15.3533 10.9524C14.2253 11.2549 13.2169 11.8955 12.4638 12.788C11.7118 13.6882 11.2565 14.799 11.1605 15.9681C11.0644 17.1371 11.3322 18.3073 11.9273 19.3182C12.5426 20.3168 13.4458 21.1057 14.5181 21.5813C15.5903 22.0568 16.7814 22.1967 17.9347 21.9825C19.2262 21.7278 20.3907 21.0362 21.2325 20.0241C22.0743 19.0119 22.542 17.7409 22.5571 16.4245C22.5709 15.2735 20.7641 15.2735 20.7641 16.4245Z" fill="#1A1A1A"/>
<path d="M26.3633 7.04209C26.3633 7.11546 26.3633 7.18425 26.3633 7.25304L26.3954 7.01458C26.3864 7.09741 26.3679 7.17895 26.3404 7.25762C26.3404 7.28972 26.3404 7.32183 26.3083 7.35393C26.2762 7.45481 26.4092 7.14756 26.3404 7.27138C26.3404 7.2989 26.2487 7.47774 26.2166 7.47774C26.1845 7.47774 26.3817 7.28972 26.267 7.40896C26.2395 7.43647 26.2166 7.46857 26.1845 7.49609L26.1111 7.56487C26.0011 7.67493 26.2991 7.44106 26.1662 7.5236L25.9735 7.63824C25.836 7.7162 26.0515 7.63825 26.0607 7.61073C26.0226 7.62776 25.9825 7.64008 25.9414 7.64742C25.8628 7.6749 25.7812 7.69336 25.6984 7.70245L25.9323 7.67035C25.7907 7.68868 25.6474 7.68868 25.5058 7.67035L25.7443 7.70245C25.66 7.69289 25.577 7.67445 25.4966 7.64742L25.4003 7.61532C25.2994 7.58322 25.6067 7.7162 25.4829 7.64742C25.41 7.6106 25.3396 7.56925 25.2719 7.5236C25.1573 7.45023 25.4141 7.652 25.3453 7.57863L25.2536 7.49609L25.1848 7.42271C25.1206 7.35393 25.1206 7.28514 25.2261 7.47774C25.1894 7.41354 25.1435 7.35393 25.1068 7.28972C25.0289 7.15215 25.1068 7.36768 25.1389 7.37685C25.1204 7.33892 25.1066 7.29889 25.0977 7.25762C25.0745 7.17778 25.0561 7.09662 25.0426 7.01458L25.0747 7.25304C25.0564 7.11301 25.0564 6.97118 25.0747 6.83114L25.0426 7.06961C25.0561 6.98756 25.0745 6.9064 25.0977 6.82656C25.0977 6.79446 25.1206 6.76236 25.1298 6.73026C25.1389 6.69816 25.0289 6.93662 25.0977 6.8128C25.0977 6.78529 25.1894 6.60644 25.2261 6.60644C25.2627 6.60644 25.061 6.79446 25.171 6.67523L25.2536 6.5881L25.327 6.51931C25.437 6.40925 25.1435 6.64313 25.2719 6.56058L25.4645 6.44594C25.6067 6.36798 25.3912 6.44594 25.382 6.47345C25.3728 6.50097 25.4829 6.44135 25.4966 6.43218C25.5777 6.40879 25.6605 6.39192 25.7443 6.38174L25.4875 6.41842C25.629 6.40009 25.7724 6.40009 25.9139 6.41842L25.6801 6.38632C25.7624 6.39606 25.8437 6.41294 25.9231 6.43677L26.0194 6.47345C26.1203 6.50555 25.813 6.37256 25.9369 6.44135C26.0097 6.47817 26.0802 6.51952 26.1478 6.56517C26.267 6.63854 26.0102 6.43677 26.079 6.51014L26.1662 6.59268C26.1926 6.61364 26.2157 6.63836 26.2349 6.66606C26.2991 6.73484 26.2991 6.80363 26.1983 6.61103C26.2304 6.67523 26.2762 6.73484 26.3129 6.79904C26.3909 6.93662 26.3129 6.72109 26.2808 6.71191C26.3013 6.74898 26.3153 6.78932 26.3221 6.83114C26.3496 6.90982 26.368 6.99135 26.3771 7.07419L26.345 6.83573C26.345 6.90452 26.345 6.9733 26.345 7.04668C26.3449 7.286 26.4384 7.51588 26.6055 7.68723C26.7725 7.85859 27 7.95785 27.2392 7.96384C27.4825 7.96384 27.7158 7.86721 27.8878 7.69521C28.0598 7.52321 28.1564 7.28992 28.1564 7.04668C28.1468 6.54136 27.9832 6.05101 27.6874 5.64124C27.3915 5.23148 26.9776 4.92185 26.5009 4.75378C26.0425 4.59577 25.5475 4.57768 25.0787 4.7018C24.61 4.82592 24.1888 5.08665 23.8687 5.45082C23.5233 5.85159 23.3117 6.35018 23.2633 6.877C23.2287 7.35867 23.3441 7.83925 23.5935 8.25274C23.8346 8.65977 24.1903 8.98675 24.6162 9.19283C25.1159 9.42437 25.6756 9.49334 26.2166 9.39002C26.7605 9.27167 27.2481 8.97224 27.5996 8.54072C27.9512 8.1092 28.1458 7.57114 28.1518 7.01458C28.1056 6.81195 27.992 6.63101 27.8295 6.5014C27.6671 6.3718 27.4654 6.30121 27.2576 6.30121C27.0497 6.30121 26.8481 6.3718 26.6856 6.5014C26.5232 6.63101 26.4095 6.81195 26.3633 7.01458V7.04209Z" fill="#1A1A1A"/>
<path d="M8.61158 11.0684H2.70966C2.59223 11.0684 2.47595 11.0915 2.36745 11.1364C2.25896 11.1814 2.16038 11.2472 2.07734 11.3303C1.99431 11.4133 1.92844 11.5119 1.8835 11.6204C1.83856 11.7289 1.81543 11.8452 1.81543 11.9626C1.81543 12.08 1.83856 12.1963 1.8835 12.3048C1.92844 12.4133 1.99431 12.5119 2.07734 12.5949C2.16038 12.6779 2.25896 12.7438 2.36745 12.7888C2.47595 12.8337 2.59223 12.8568 2.70966 12.8568H8.61158C8.84692 12.851 9.07101 12.7549 9.23746 12.5885C9.40392 12.422 9.5 12.1979 9.50581 11.9626C9.5 11.7273 9.40392 11.5032 9.23746 11.3367C9.07101 11.1703 8.84692 11.0742 8.61158 11.0684Z" fill="#1A1A1A"/>
<path d="M25.0792 12.8385H31.3113C31.5485 12.8385 31.7759 12.7443 31.9436 12.5766C32.1113 12.4089 32.2055 12.1814 32.2055 11.9443C32.2055 11.7071 32.1113 11.4796 31.9436 11.3119C31.7759 11.1442 31.5485 11.05 31.3113 11.05H25.0792C24.9449 11.0194 24.8054 11.0195 24.6711 11.0501C24.5368 11.0808 24.4111 11.1414 24.3035 11.2273C24.1958 11.3132 24.1088 11.4223 24.049 11.5464C23.9893 11.6705 23.9583 11.8065 23.9583 11.9443C23.9583 12.082 23.9893 12.218 24.049 12.3421C24.1088 12.4663 24.1958 12.5753 24.3035 12.6612C24.4111 12.7471 24.5368 12.8077 24.6711 12.8384C24.8054 12.8691 24.9449 12.8691 25.0792 12.8385Z" fill="#1A1A1A"/>
<path d="M24.8912 29.8381H11.3768C10.4872 29.8381 9.58376 29.8794 8.6987 29.8381C7.43616 29.7433 6.23827 29.2422 5.28431 28.4097C4.33035 27.5773 3.67161 26.4583 3.40669 25.2202C3.2652 24.2056 3.22679 23.1793 3.29205 22.1569V11.2427C3.29205 10.3256 3.29205 9.4084 3.29205 8.51417C3.29568 7.30772 3.67155 6.13179 4.36836 5.14691C5.06516 4.16203 6.04894 3.41619 7.18539 3.01121C8.30433 2.63517 9.44619 2.6902 10.6018 2.6902H15.6875C18.7278 2.6902 21.7636 2.6902 24.7994 2.6902C25.8338 2.6786 26.853 2.93947 27.7546 3.44661C28.6561 3.95374 29.4083 4.68927 29.9355 5.57926C30.6647 6.81742 30.7289 8.12438 30.7289 9.5047V23.794C30.7569 24.7303 30.5639 25.66 30.1655 26.5077C29.7671 27.3554 29.1746 28.0973 28.436 28.6733C27.4122 29.4362 26.1679 29.8451 24.8912 29.8381C23.7401 29.8381 23.7355 31.6404 24.8912 31.6266C26.3389 31.6125 27.7531 31.189 28.9703 30.4051C30.1875 29.6212 31.1581 28.5089 31.7699 27.1967C32.4027 25.7843 32.4623 24.3581 32.4623 22.8494V11.7472C32.4623 10.6787 32.4623 9.60559 32.4623 8.5371C32.4605 7.22489 32.1234 5.9349 31.4829 4.78961C30.8425 3.64431 29.9199 2.6817 28.8028 1.99316C27.3262 1.10352 25.712 0.9155 24.0336 0.9155H9.29944C8.17155 0.897829 7.05346 1.12717 6.0236 1.58744C4.99374 2.04771 4.07707 2.72775 3.33791 3.57985C2.09684 5.09606 1.44541 7.00965 1.50359 8.96816V23.6748C1.44668 25.7282 2.18801 27.7238 3.57178 29.242C4.31864 30.0208 5.21905 30.6361 6.21602 31.049C7.21299 31.4618 8.28482 31.6632 9.36364 31.6404H24.8912C26.056 31.6404 26.0605 29.8381 24.8912 29.8381Z" fill="#1A1A1A"/>
</g>
<defs>
<clipPath id="clip0_5_1449">
<rect width="32" height="32" fill="white" transform="translate(0.5 0.109863)"/>
</clipPath>
</defs>
</svg>
