<?xml version="1.0" standalone="no"?>
<!DOCTYPE svg PUBLIC "-//W3C//DTD SVG 20010904//EN"
 "http://www.w3.org/TR/2001/REC-SVG-20010904/DTD/svg10.dtd">
<svg version="1.0" xmlns="http://www.w3.org/2000/svg"
 width="37" height="37" viewBox="0 0 512.000000 512.000000"
 preserveAspectRatio="xMidYMid meet">

<g transform="translate(0.000000,512.000000) scale(0.100000,-0.100000)"
fill="#000000" stroke="none">
<path d="M4375 4312 c-11 -2 -58 -17 -105 -32 -241 -81 -539 -81 -1440 -5
-211 18 -668 31 -723 21 -29 -5 -47 -20 -89 -71 -51 -62 -53 -63 -60 -38 -19
70 -65 79 -189 33 -272 -99 -516 -318 -668 -601 -40 -74 -44 -78 -132 -128
-96 -55 -173 -109 -226 -159 -40 -37 -44 -78 -10 -110 38 -35 65 -27 165 48
171 128 427 235 662 274 182 30 371 38 750 32 531 -10 832 11 1137 80 226 50
532 154 567 193 37 40 5 114 -50 114 -16 0 -83 -20 -149 -45 -139 -53 -335
-109 -485 -138 -253 -48 -323 -52 -1005 -60 -599 -7 -659 -9 -770 -28 -66 -12
-153 -31 -194 -42 -40 -11 -75 -19 -78 -17 -6 7 87 128 146 190 72 76 178 156
271 205 123 65 120 66 120 -18 0 -81 10 -107 47 -121 45 -17 73 5 177 136
l100 124 52 7 c68 8 419 -10 792 -41 476 -39 654 -48 857 -42 213 7 333 24
465 66 50 16 90 27 90 25 0 -15 -108 -224 -156 -304 -167 -277 -402 -523 -649
-677 -77 -49 -250 -129 -350 -162 -263 -87 -598 -112 -910 -66 -55 8 -103 15
-107 15 -4 0 -73 82 -154 183 -81 100 -152 185 -158 189 -19 13 -74 8 -90 -8
-22 -21 -26 -43 -29 -156 l-2 -96 -80 32 c-44 18 -178 79 -298 135 -202 96
-220 102 -247 91 -39 -16 -56 -59 -38 -96 11 -23 53 -47 233 -132 263 -124
431 -191 494 -199 62 -7 83 16 89 97 l4 59 84 -104 c47 -58 95 -111 107 -119
21 -13 88 -26 252 -46 124 -16 436 -13 561 5 662 97 1179 494 1512 1163 64
128 77 162 77 202 0 34 -6 57 -21 77 -35 46 -103 76 -149 65z"/>
<path d="M3934 2930 c-11 -4 -26 -15 -33 -24 -16 -19 -17 -72 -2 -89 5 -7 188
-98 406 -201 218 -104 392 -193 388 -197 -4 -4 -258 -126 -563 -271 -305 -146
-780 -372 -1054 -503 -274 -131 -504 -238 -510 -238 -11 0 -2115 1001 -2128
1013 -5 3 153 82 349 175 196 94 367 178 380 188 33 26 32 79 -3 106 -15 12
-34 21 -43 21 -13 0 -249 -111 -898 -422 -12 -6 -27 -24 -34 -40 -23 -56 -6
-71 188 -164 l178 -86 -177 -85 c-151 -73 -178 -90 -189 -116 -10 -24 -10 -34
2 -55 11 -20 256 -141 1183 -584 643 -307 1180 -558 1193 -558 33 0 2344 1105
2366 1131 21 26 22 57 3 84 -7 11 -90 56 -184 100 -94 44 -169 82 -166 84 3 3
83 44 177 91 145 72 174 89 182 113 20 60 13 64 -487 302 -256 122 -475 224
-485 227 -10 3 -28 2 -39 -2z m-2291 -1250 c495 -237 911 -430 924 -430 12 0
428 193 924 430 496 236 907 430 915 430 24 0 295 -133 287 -141 -13 -12
-2115 -1012 -2127 -1012 -6 0 -456 213 -1001 473 -545 260 -1024 489 -1065
508 l-75 35 140 68 c77 37 148 68 158 68 11 1 424 -192 920 -429z"/>
</g>
</svg>
