<svg width="33" height="33" viewBox="0 0 33 33" fill="none" xmlns="http://www.w3.org/2000/svg">
<g clip-path="url(#clip0_5_1460)">
<path d="M28.6471 7.3115C27.0806 7.30912 25.579 6.68515 24.4722 5.57661C23.3653 4.46806 22.7436 2.96557 22.7436 1.39904C22.7436 1.16073 22.649 0.932179 22.4804 0.763668C22.3119 0.595157 22.0834 0.500488 21.8451 0.500488H16.9704C16.7321 0.500488 16.5036 0.595157 16.3351 0.763668C16.1665 0.932179 16.0719 1.16073 16.0719 1.39904V21.3514C16.0719 22.0373 15.8685 22.7079 15.4873 23.2783C15.1062 23.8487 14.5645 24.2932 13.9308 24.5557C13.297 24.8183 12.5996 24.8869 11.9268 24.7531C11.254 24.6193 10.636 24.289 10.1509 23.8039C9.66588 23.3188 9.33554 22.7008 9.20171 22.028C9.06788 21.3552 9.13657 20.6578 9.39909 20.0241C9.6616 19.3903 10.1062 18.8486 10.6765 18.4675C11.2469 18.0864 11.9175 17.883 12.6035 17.883C12.8418 17.883 13.0703 17.7883 13.2388 17.6198C13.4074 17.4513 13.502 17.2227 13.502 16.9844V12.1098C13.502 11.8715 13.4074 11.6429 13.2388 11.4744C13.0703 11.3059 12.8418 11.2112 12.6035 11.2112C10.5954 11.2094 8.63193 11.8034 6.96154 12.9179C5.29115 14.0324 3.98892 15.6174 3.21964 17.4723C2.45036 19.3272 2.24862 21.3686 2.63994 23.3381C3.03126 25.3077 3.99805 27.1169 5.41797 28.5369C6.8379 29.9568 8.64712 30.9236 10.6167 31.3149C12.5863 31.7062 14.6277 31.5045 16.4825 30.7352C18.3374 29.9659 19.9224 28.6637 21.0369 26.9933C22.1514 25.3229 22.7454 23.3594 22.7436 21.3514V12.5231C24.5614 13.4876 26.5894 13.9876 28.6471 13.9787C28.8854 13.9787 29.114 13.8841 29.2825 13.7156C29.451 13.5471 29.5456 13.3185 29.5456 13.0802V8.21904C29.5468 8.10029 29.5245 7.98247 29.4798 7.87242C29.4352 7.76236 29.3692 7.66224 29.2857 7.57785C29.2021 7.49346 29.1027 7.42647 28.993 7.38075C28.8834 7.33503 28.7659 7.3115 28.6471 7.3115ZM27.7485 12.1367C25.8045 11.9797 23.9403 11.2946 22.3572 10.1554C22.2225 10.0543 22.0621 9.99313 21.8943 9.97882C21.7265 9.96451 21.558 9.99765 21.4081 10.0745C21.2582 10.1513 21.1329 10.2687 21.0466 10.4133C20.9602 10.5579 20.9162 10.7238 20.9196 10.8922V21.3514C20.9223 22.962 20.4583 24.5389 19.5837 25.8913C18.7091 27.2438 17.4614 28.3138 15.9914 28.972C14.5214 29.6302 12.8922 29.8484 11.3008 29.6001C9.70948 29.3518 8.22415 28.6478 7.02453 27.5731C5.8249 26.4984 4.96239 25.0991 4.54131 23.5445C4.12024 21.9899 4.15865 20.3466 4.65189 18.8134C5.14514 17.2802 6.07209 15.9227 7.32061 14.9052C8.56913 13.8878 10.0857 13.2539 11.687 13.0802V16.1577C10.6956 16.3315 9.77457 16.7847 9.03211 17.4641C8.28965 18.1436 7.75669 19.0209 7.49593 19.993C7.23518 20.965 7.25747 21.9913 7.5602 22.9512C7.86293 23.911 8.4335 24.7643 9.20477 25.4109C9.97604 26.0574 10.9159 26.4703 11.9138 26.6008C12.9118 26.7313 13.9262 26.5741 14.8378 26.1476C15.7494 25.7211 16.5202 25.0432 17.0596 24.1935C17.599 23.3438 17.8845 22.3578 17.8825 21.3514V2.29759H20.9825C21.1916 4.01225 21.9688 5.6075 23.1903 6.82893C24.4117 8.05036 26.0069 8.82761 27.7216 9.03672L27.7485 12.1367Z" fill="#1A1A1A"/>
</g>
<defs>
<clipPath id="clip0_5_1460">
<rect width="32" height="32" fill="white" transform="translate(0.5 0.500488)"/>
</clipPath>
</defs>
</svg>
