<svg width="33" height="33" viewBox="0 0 33 33" fill="none" xmlns="http://www.w3.org/2000/svg">
<g clip-path="url(#clip0_5_1467)">
<path d="M31.3898 7.6073C30.3952 8.03888 29.3444 8.32726 28.2689 8.46382L28.6365 9.79822C30.0521 8.93174 31.1129 7.58945 31.6288 6.0119C31.6557 5.87811 31.6448 5.73948 31.5973 5.61153C31.5499 5.48358 31.4678 5.37135 31.3602 5.28741C31.2526 5.20347 31.1238 5.15113 30.9881 5.13626C30.8525 5.12138 30.7154 5.14455 30.5921 5.20317C29.4523 5.86933 28.2102 6.34256 26.9161 6.60374L27.6145 6.78754C26.8313 5.95719 25.8511 5.33796 24.7648 4.98724C23.6785 4.63652 22.5213 4.56564 21.4003 4.78119C20.2793 4.99673 19.2309 5.49171 18.3521 6.22028C17.4734 6.94885 16.7927 7.88742 16.3732 8.94905C15.8693 10.244 15.7669 11.6607 16.0791 13.0147L16.7702 12.1104C14.4518 11.9782 12.1862 11.3651 10.1174 10.3101C8.0486 9.25514 6.22188 7.78139 4.75328 5.98249C4.67352 5.90816 4.57822 5.85249 4.47429 5.81953C4.37036 5.78657 4.26041 5.77714 4.15238 5.79192C4.04435 5.80669 3.94097 5.84531 3.84971 5.90498C3.75845 5.96464 3.68161 6.04386 3.62474 6.13689C2.77474 7.64184 2.52252 9.41166 2.91828 11.0942C3.31404 12.7766 4.32876 14.2485 5.76052 15.2167L6.12812 13.8823C5.29314 13.8445 4.47752 13.6183 3.74238 13.2206C3.63324 13.1607 3.51067 13.1294 3.38616 13.1298C3.26165 13.1302 3.13928 13.1622 3.03053 13.2229C2.92178 13.2835 2.8302 13.3707 2.76439 13.4764C2.69858 13.5821 2.66069 13.7028 2.65427 13.8272C2.65096 15.3947 3.18466 16.9161 4.16653 18.1381C5.14839 19.3601 6.51918 20.2089 8.05069 20.5433V19.1611C7.28048 19.3641 6.47563 19.3992 5.69067 19.264C5.19073 19.1758 4.62095 19.5838 4.80842 20.1463C5.25153 21.4948 6.10017 22.6736 7.23843 23.5217C8.37668 24.3698 9.74903 24.8458 11.168 24.8847L10.6607 23.6605C8.24788 25.4961 5.21634 26.3225 2.20579 25.9654C1.47059 25.8809 1.29414 26.9506 1.83819 27.2998C4.34796 28.8727 7.1997 29.8178 10.1521 30.0552C13.1045 30.2926 16.0706 29.8153 18.7994 28.6636C23.1335 26.8256 26.4382 23.1496 28.177 18.7935C29.1207 16.4332 29.5566 13.9005 29.4562 11.3605L29.0886 11.9818C30.3709 11.0478 31.4816 9.89853 32.3713 8.58512C32.8897 7.81683 31.6361 7.11471 31.1362 7.84992C30.6696 8.53319 30.1351 9.16747 29.5408 9.74308C29.2468 10.028 28.9376 10.2967 28.6144 10.5481C28.4512 10.6544 28.2996 10.7776 28.1623 10.9157C28.0284 11.1359 27.9788 11.397 28.0226 11.6509C28.0535 12.777 27.966 13.9031 27.7616 15.0108C27.3451 17.2344 26.5025 19.3564 25.2803 21.2601C23.9444 23.3548 22.1405 25.1108 20.0105 26.3898C17.8806 27.6688 15.4828 28.4358 13.006 28.6305C9.33272 28.934 5.66078 28.0305 2.54766 26.0573L2.18006 27.3954C5.57686 27.7591 8.98138 26.7817 11.6679 24.6715C12.1899 24.2671 11.7194 23.4657 11.1606 23.4473C10.0547 23.4169 8.98462 23.0482 8.09466 22.391C7.2047 21.7337 6.5376 20.8194 6.18326 19.7713L5.30101 20.6535C6.33636 20.8477 7.40167 20.8125 8.42197 20.5506C9.08733 20.3778 9.12409 19.3155 8.42197 19.1684C7.19395 18.916 6.09136 18.2459 5.30183 17.272C4.5123 16.2982 4.08462 15.0808 4.0916 13.8272L3.02187 14.4484C3.98041 14.9654 5.04373 15.2582 6.1318 15.3049C6.89274 15.338 7.04345 14.3418 6.4994 13.9668C5.38669 13.1996 4.60138 12.0438 4.29796 10.7267C3.99455 9.40968 4.195 8.02675 4.85989 6.85004L3.75708 6.9934C5.35272 8.92324 7.33082 10.5016 9.56671 11.629C11.8026 12.7565 14.2478 13.4085 16.7482 13.5441C16.8574 13.5406 16.9645 13.5128 17.0617 13.4627C17.1588 13.4126 17.2436 13.3415 17.3098 13.2545C17.376 13.1676 17.4219 13.0669 17.4444 12.96C17.4668 12.853 17.465 12.7423 17.4393 12.6361C17.2534 11.8052 17.2682 10.9419 17.4824 10.1178C17.6966 9.29368 18.1041 8.53247 18.6711 7.89721C19.2381 7.26195 19.9482 6.77092 20.7428 6.4648C21.5373 6.15868 22.3934 6.04627 23.2401 6.13689C24.4928 6.2882 25.6581 6.85663 26.5485 7.75067C27.1403 8.30207 28.3277 7.75067 29.0004 7.51908C29.8043 7.23313 30.5797 6.87252 31.3163 6.442L30.2466 5.62959C29.8381 6.85469 29.0101 7.89619 27.9086 8.57042C27.3535 8.90862 27.541 10.0004 28.2762 9.90482C29.602 9.74201 30.8972 9.38788 32.1214 8.85348C32.2821 8.75427 32.3986 8.59698 32.4465 8.41423C32.4944 8.23148 32.4701 8.0373 32.3787 7.87197C32.2806 7.708 32.1225 7.58868 31.9379 7.53927C31.7533 7.48986 31.5567 7.51426 31.3898 7.6073Z" fill="#1A1A1A"/>
</g>
<defs>
<clipPath id="clip0_5_1467">
<rect width="32" height="32" fill="white" transform="translate(0.5 0.891113)"/>
</clipPath>
</defs>
</svg>
